<svg width="28" height="28" viewBox="0 0 28 28" fill="none" xmlns="http://www.w3.org/2000/svg">
<path d="M24.3246 20.3L23.3621 18.8125C21.6996 16.3625 20.8246 13.475 20.8246 10.5C20.8246 7.35 18.7246 4.8125 15.9246 3.9375C15.6621 3.15 14.8746 2.625 13.9996 2.625C13.1246 2.625 12.3371 3.15 12.0746 3.9375C9.27456 4.8125 7.17456 7.35 7.17456 10.5C7.17456 13.475 6.29956 16.3625 4.63706 18.8125L3.67456 20.3C3.23706 21 3.67456 21.875 4.54956 21.875H23.4496C24.3246 21.875 24.7621 21 24.3246 20.3Z" stroke="#333333" stroke-width="2" stroke-miterlimit="10" stroke-linecap="round" stroke-linejoin="round"/>
<path d="M17.5 21.875C17.5 23.8 15.925 25.375 14 25.375C12.075 25.375 10.5 23.8 10.5 21.875" stroke="#333333" stroke-width="2" stroke-miterlimit="10" stroke-linecap="round" stroke-linejoin="round"/>
</svg>
