<svg width="30" height="30" viewBox="0 0 30 30" fill="none" xmlns="http://www.w3.org/2000/svg">
<path d="M8.14795 9.22266H21.852C22.0906 9.22266 22.3196 9.31748 22.4883 9.48626C22.6571 9.65504 22.752 9.88396 22.752 10.1227C22.752 10.3614 22.6571 10.5903 22.4883 10.7591C22.3196 10.9278 22.0906 11.0227 21.852 11.0227H8.14895C7.91026 11.0228 7.68129 10.9281 7.51241 10.7594C7.34353 10.5907 7.24859 10.3619 7.24845 10.1232C7.24832 9.88446 7.34302 9.65549 7.5117 9.48661C7.68039 9.31774 7.90926 9.22279 8.14795 9.22266ZM11.074 13.7007H18.926C19.1646 13.7007 19.3936 13.7955 19.5623 13.9643C19.7311 14.133 19.826 14.362 19.826 14.6007C19.826 14.8394 19.7311 15.0683 19.5623 15.2371C19.3936 15.4058 19.1646 15.5007 18.926 15.5007H11.074C10.8353 15.5007 10.6063 15.4058 10.4376 15.2371C10.2688 15.0683 10.174 14.8394 10.174 14.6007C10.174 14.362 10.2688 14.133 10.4376 13.9643C10.6063 13.7955 10.8353 13.7007 11.074 13.7007Z" fill="#1557FF"/>
<path d="M5.00039 0.566406H25.0004C26.2995 0.56773 27.5451 1.0844 28.4638 2.00304C29.3824 2.92169 29.8991 4.16725 29.9004 5.46641V19.2574C29.9004 21.9594 27.7024 24.1574 25.0004 24.1574H21.1114L21.2164 27.4664C21.2299 27.8248 21.1409 28.1796 20.9599 28.4892C20.7788 28.7988 20.5133 29.0504 20.1944 29.2144C19.8767 29.3807 19.5183 29.4532 19.161 29.4235C18.8037 29.3937 18.4622 29.2629 18.1764 29.0464L11.6704 24.1574H5.00039C2.29839 24.1574 0.100391 21.9594 0.100391 19.2574V5.46641C0.100391 2.76541 2.29839 0.566406 5.00039 0.566406ZM1.90039 19.2574C1.90039 20.9664 3.29139 22.3574 5.00039 22.3574H11.9724C12.1676 22.3572 12.3576 22.4207 12.5134 22.5384L19.2594 27.6084C19.2764 27.6194 19.3094 27.6464 19.3644 27.6174C19.4204 27.5884 19.4194 27.5464 19.4184 27.5254L19.2824 23.2874C19.2781 23.1668 19.2982 23.0465 19.3414 22.9338C19.3847 22.8212 19.4503 22.7184 19.5342 22.6316C19.6182 22.5449 19.7187 22.476 19.8299 22.429C19.9412 22.3821 20.0607 22.3581 20.1814 22.3584H25.0004C25.8222 22.3573 26.6101 22.0304 27.1913 21.4493C27.7724 20.8681 28.0993 20.0803 28.1004 19.2584V5.46641C28.1004 3.75741 26.7094 2.36641 25.0004 2.36641H5.00039C3.29139 2.36641 1.90039 3.75741 1.90039 5.46641V19.2574Z" fill="#1557FF"/>
</svg>
