<svg width="19" height="20" viewBox="0 0 19 20" fill="none" xmlns="http://www.w3.org/2000/svg">
<path d="M3.151 6.90508C2.41036 7.77922 1.85885 8.79732 1.53125 9.8952C2.55408 13.3295 5.735 15.8327 9.50017 15.8327C10.2863 15.8327 11.0463 15.7235 11.7667 15.52M4.93067 5.3257C6.28649 4.43097 7.87573 3.95519 9.50017 3.9577C13.2653 3.9577 16.4455 6.46095 17.4683 9.89362C16.9077 11.7693 15.7044 13.3877 14.0697 14.4647M4.93067 5.3257L2.37517 2.7702M4.93067 5.3257L7.82025 8.21529M14.0697 14.4647L16.6252 17.0202M14.0697 14.4647L11.1801 11.5751C11.4006 11.3546 11.5756 11.0927 11.695 10.8045C11.8143 10.5164 11.8758 10.2075 11.8758 9.8956C11.8758 9.58368 11.8143 9.27482 11.695 8.98665C11.5756 8.69848 11.4006 8.43664 11.1801 8.21608C10.9595 7.99552 10.6977 7.82056 10.4095 7.7012C10.1213 7.58183 9.81248 7.5204 9.50056 7.5204C9.18865 7.5204 8.87978 7.58183 8.59161 7.7012C8.30344 7.82056 8.0416 7.99552 7.82104 8.21608M11.1793 11.5743L7.82183 8.21687" stroke="#363F4A" stroke-width="1.6" stroke-linecap="round" stroke-linejoin="round"/>
</svg>
