<svg width="19" height="20" viewBox="0 0 19 20" fill="none" xmlns="http://www.w3.org/2000/svg">
<path d="M1.61178 10.1501C1.55714 9.98592 1.55714 9.80844 1.61178 9.64424C2.70982 6.34062 5.82661 3.9577 9.49994 3.9577C13.1717 3.9577 16.2869 6.33824 17.3873 9.64029C17.4427 9.80416 17.4427 9.98149 17.3873 10.1462C16.2901 13.4498 13.1733 15.8327 9.49994 15.8327C5.82819 15.8327 2.71219 13.4522 1.61178 10.1501Z" stroke="#363F4A" stroke-width="1.6" stroke-linecap="round" stroke-linejoin="round"/>
<path d="M11.875 9.8952C11.875 10.5251 11.6248 11.1292 11.1794 11.5746C10.734 12.02 10.1299 12.2702 9.5 12.2702C8.87011 12.2702 8.26602 12.02 7.82062 11.5746C7.37522 11.1292 7.125 10.5251 7.125 9.8952C7.125 9.26531 7.37522 8.66122 7.82062 8.21582C8.26602 7.77042 8.87011 7.5202 9.5 7.5202C10.1299 7.5202 10.734 7.77042 11.1794 8.21582C11.6248 8.66122 11.875 9.26531 11.875 9.8952Z" stroke="#363F4A" stroke-width="1.6" stroke-linecap="round" stroke-linejoin="round"/>
</svg>
